<?xml version="1.0" encoding="iso-8859-1"?>
<!-- Uploaded to: SVG Repo, www.svgrepo.com, Generator: SVG Repo Mixer Tools -->
<svg fill="#000000" height="800px" width="800px" version="1.1" id="Capa_1" xmlns="http://www.w3.org/2000/svg" xmlns:xlink="http://www.w3.org/1999/xlink" 
	 viewBox="0 0 470 470" xml:space="preserve">
<g>
	<path d="M433.811,213.462l-41.945-5.802c-3.347-0.463-7.093-1.144-11.175-2.014c-0.074-0.016-0.147-0.033-0.222-0.047
		c-7.615-1.631-16.393-3.916-25.933-6.669l2.302-6.798c1.329-3.923-0.774-8.181-4.698-9.509c-3.924-1.331-8.18,0.774-9.509,4.698
		l-2.469,7.293c-6.578-2.044-13.396-4.247-20.344-6.559l2.391-7.063c1.329-3.923-0.774-8.181-4.698-9.509
		c-3.922-1.333-8.181,0.774-9.509,4.698l-2.391,7.062c-6.699-2.306-13.451-4.68-20.166-7.08l2.445-7.222
		c1.329-3.923-0.774-8.181-4.698-9.509c-3.926-1.333-8.182,0.774-9.509,4.698l-2.348,6.935c-6.826-2.492-13.542-4.979-20.052-7.417
		l2.483-7.334c1.329-3.923-0.774-8.181-4.698-9.509c-3.922-1.333-8.181,0.774-9.509,4.698l-2.318,6.846
		c-33.573-12.768-58.775-23.03-59.406-23.287c-3.613-1.476-7.754,0.067-9.521,3.547l-9.209,18.128
		c-5.07,9.98-3.992,22.708,1.994,32.28c-5.73,0.98-11.577,1.479-17.5,1.479c-32.514,0-63.427-15.678-82.694-41.937
		c-1.413-1.926-3.659-3.063-6.047-3.063h-30c-2.62,0-5.049,1.367-6.41,3.605C17.694,150.341,0,179.988,0,225.496
		c0,45.456,17.163,75.072,17.893,76.311c1.349,2.286,3.806,3.689,6.46,3.689h23.099l1.927,23.123
		c0.324,3.887,3.573,6.877,7.474,6.877h25c3.901,0,7.15-2.99,7.474-6.877l1.927-23.123h16.198l1.927,23.123
		c0.324,3.887,3.573,6.877,7.474,6.877h25c3.901,0,7.15-2.99,7.474-6.877l1.927-23.123h124.345l1.927,23.123
		c0.323,3.887,3.573,6.877,7.474,6.877h25c3.9,0,7.15-2.99,7.474-6.877l1.927-23.123h16.199l1.927,23.123
		c0.323,3.887,3.573,6.877,7.474,6.877h25c3.9,0,7.15-2.99,7.474-6.877l1.927-23.123h16.199l1.927,23.123
		c0.323,3.887,3.573,6.877,7.474,6.877h25c3.9,0,7.15-2.99,7.474-6.877l1.927-23.123H462.5c4.143,0,7.5-3.357,7.5-7.5v-42.995
		C470,234.855,453.766,216.221,433.811,213.462z M231.708,174.687l-0.182,0.538c-1.328,3.923,0.775,8.181,4.699,9.509
		c0.797,0.271,1.608,0.398,2.406,0.398c3.127,0,6.044-1.971,7.103-5.097l0.685-2.023c1.72,0.582,3.567,1.234,5.573,1.959
		c4.757,1.769,9.609,3.557,14.517,5.347l-0.852,2.518c-1.329,3.923,0.774,8.181,4.698,9.509c0.798,0.271,1.608,0.398,2.406,0.398
		c3.127,0,6.045-1.971,7.103-5.097l0.757-2.235c6.709,2.395,13.46,4.763,20.17,7.069l-0.805,2.377
		c-1.329,3.923,0.774,8.181,4.698,9.509c0.797,0.271,1.608,0.398,2.406,0.398c3.127,0,6.044-1.971,7.103-5.097l0.807-2.385
		c6.932,2.302,13.745,4.498,20.348,6.547l-0.728,2.151c-1.329,3.923,0.774,8.181,4.698,9.509c0.798,0.271,1.608,0.398,2.406,0.398
		c3.126,0,6.044-1.971,7.103-5.097l0.895-2.644c6.72,1.943,13.094,3.665,19.017,5.12c-4.131,5.94-10.997,9.73-18.47,9.73
		c-2.129,0-4.257-0.307-6.325-0.911c-39.828-11.639-90.221-30.17-129.505-45.312C221.389,176.819,225.953,174.595,231.708,174.687z
		 M172.478,163.53l6.09-11.988c6.989,2.815,19.081,7.644,34.192,13.511c-2.711,1.539-5.583,3.434-8.707,5.72
		c-3.032,2.219-6.164,4.254-9.378,6.109c-0.158,0.083-0.311,0.173-0.463,0.268c-5.466,3.117-11.175,5.71-17.073,7.751
		c-0.029-0.024-0.056-0.048-0.082-0.069C171.198,179.933,169.1,170.178,172.478,163.53z M15,225.496
		c0-7.924,0.602-15.329,1.571-22.129c27.952,1.894,53.982,16.178,70.573,39.035c1.411,1.943,3.667,3.094,6.069,3.094l117.576,0.001
		c9.777,0,18.114,6.271,21.21,15H18.806C16.612,250.582,15,238.78,15,225.496z M74.952,320.496H63.754l-1.25-15h13.698
		L74.952,320.496z M134.952,320.496h-11.198l-1.25-15h13.698L134.952,320.496z M303.099,320.496h-11.197l-1.251-15h13.698
		L303.099,320.496z M363.099,320.496h-11.197l-1.25-15h13.698L363.099,320.496z M423.099,320.496h-11.197l-1.25-15h13.698
		L423.099,320.496z M432.399,290.496c-0.023,0-0.045,0-0.068,0h-29.653c-0.031-0.001-0.063,0-0.095,0h-30.184
		c-0.022,0-0.045,0-0.068,0h-29.652c-0.032-0.001-0.064,0-0.095,0H312.4c-0.023,0-0.045,0-0.068,0h-29.653
		c-0.032-0.001-0.063,0-0.095,0H144.28c-0.038,0-0.077-0.001-0.115,0h-29.649c-0.047,0-30.235,0-30.235,0
		c-0.038,0-0.077-0.001-0.115,0H54.516c-0.047,0-25.61,0-25.61,0c-1.517-3.149-3.747-8.249-5.98-15H402.5c4.143,0,7.5-3.357,7.5-7.5
		s-3.357-7.5-7.5-7.5H247.535c-3.484-17.096-18.636-30-36.746-30l-113.837-0.001c-18.884-24.164-47.149-39.383-77.536-41.959
		c3.253-13.391,7.516-23.129,9.942-28.04h21.778c22.196,28.247,56.473,45,92.462,45c19.476,0,38.246-4.719,55.123-13.723
		c40.724,15.856,97.106,36.88,141.014,49.712c3.435,1.004,6.979,1.513,10.533,1.513c14.521,0,27.696-8.555,33.84-21.396
		c1.996,0.359,3.903,0.669,5.702,0.918l41.945,5.802c12.6,1.741,23.244,13.96,23.244,26.68v5.495h-22.5c-4.143,0-7.5,3.357-7.5,7.5
		s3.357,7.5,7.5,7.5H455v15H432.399z"/>
</g>
</svg>